<svg xmlns="http://www.w3.org/2000/svg" viewBox="0 0 1024 1024">
  <g fill="none" stroke-linecap="round">
    <ellipse cx="512" cy="512" rx="430" ry="178" transform="rotate(-18 512 512)" stroke="#28B8EA" stroke-width="10"/>
    <ellipse cx="512" cy="512" rx="430" ry="178" transform="rotate(42 512 512)" stroke="#7668E8" stroke-width="10"/>
    <circle cx="866" cy="402" r="20" fill="#28B8EA" stroke="none"/>
    <circle cx="215" cy="674" r="20" fill="#7668E8" stroke="none"/>
  </g>
  <path d="M512 150 L807 321 Q832 336 832 365 V659 Q832 688 807 703 L512 874 L217 703 Q192 688 192 659 V365 Q192 336 217 321 Z" fill="#313B4B"/>
  <path d="M512 150 L807 321 Q832 336 832 365 V398 L512 214 L192 398 V365 Q192 336 217 321 Z" fill="#4B5668"/>
  <text x="512" y="626" text-anchor="middle" font-family="SF Pro Display, Inter, sans-serif" font-size="300" font-weight="600" letter-spacing="-18" fill="#F7FAFF">Pb</text>
</svg>
